<?xml version="1.0" standalone="no"?>
<!DOCTYPE svg PUBLIC "-//W3C//DTD SVG 20010904//EN"
 "http://www.w3.org/TR/2001/REC-SVG-20010904/DTD/svg10.dtd">
<svg version="1.0" xmlns="http://www.w3.org/2000/svg"
 width="301.000000pt" height="167.000000pt" viewBox="0 0 301.000000 167.000000"
 preserveAspectRatio="xMidYMid meet">
<metadata>
Created by potrace 1.15, written by Peter Selinger 2001-2017
</metadata>
<g transform="translate(0.000000,167.000000) scale(0.100000,-0.100000)"
fill="#000000" stroke="none">
<path d="M589 1261 c-33 -33 -39 -45 -39 -81 0 -78 56 -133 134 -133 82 0 136
52 136 130 -1 78 -52 123 -139 123 -49 0 -57 -3 -92 -39z"/>
<path d="M2384 1281 c-45 -27 -64 -59 -64 -106 0 -52 31 -102 75 -121 98 -40
195 20 195 122 0 97 -120 158 -206 105z"/>
<path d="M132 1004 c-12 -8 -22 -22 -22 -30 0 -31 265 -628 292 -656 l26 -28
136 0 136 0 0 -75 0 -75 -71 0 c-68 0 -73 -2 -135 -46 -35 -25 -64 -46 -64
-47 0 -1 140 -2 310 -2 171 0 310 0 310 1 0 0 -29 21 -64 47 -63 46 -65 47
-140 47 l-76 0 0 75 0 75 138 0 c150 0 182 10 182 54 0 48 -14 51 -308 56
l-275 5 -128 295 c-71 162 -136 301 -146 308 -23 17 -74 15 -101 -4z"/>
<path d="M2787 1008 c-10 -8 -58 -135 -115 -308 l-99 -295 -269 -5 c-148 -3
-277 -9 -286 -13 -32 -16 -33 -49 -4 -74 25 -22 36 -23 162 -23 l134 0 0 -75
0 -75 -73 0 c-71 0 -75 -1 -135 -46 -34 -25 -62 -47 -62 -47 0 -1 138 -1 306
1 l305 3 -60 44 c-60 44 -63 45 -136 45 l-75 0 0 75 0 75 139 0 c117 0 142 3
160 18 15 12 52 111 126 332 58 173 105 322 105 332 0 39 -85 64 -123 36z"/>
<path d="M610 1003 c-8 -3 -25 -15 -37 -26 -23 -20 -23 -25 -23 -253 0 -128 3
-240 6 -249 4 -9 24 -25 45 -35 35 -18 60 -20 299 -20 l260 0 0 -169 c0 -141
3 -172 16 -185 32 -32 87 -32 119 0 12 13 15 51 15 218 0 194 -1 204 -21 222
-19 17 -41 19 -260 22 l-239 3 0 123 0 124 165 -69 c90 -38 175 -69 188 -69
33 0 62 33 49 56 -5 9 -97 54 -203 98 -172 73 -194 85 -197 106 -6 46 -25 81
-53 95 -27 15 -99 19 -129 8z"/>
<path d="M2359 987 c-28 -19 -35 -30 -39 -67 l-5 -45 -205 -77 c-224 -84 -240
-91 -240 -112 0 -22 29 -46 55 -46 12 0 101 29 197 65 96 36 180 65 187 65 8
0 11 -36 11 -120 l0 -119 -246 -3 c-245 -3 -246 -3 -265 -27 -17 -21 -19 -41
-19 -225 0 -110 4 -206 8 -212 24 -37 88 -40 125 -7 15 14 17 37 17 190 l0
173 268 0 c249 0 269 1 300 20 18 11 37 32 42 46 13 33 13 425 0 458 -23 62
-128 86 -191 43z"/>
<path d="M945 610 c-4 -6 -1 -17 5 -25 11 -13 99 -15 609 -15 328 0 602 4 610
9 8 5 11 16 8 25 -6 14 -66 16 -616 16 -413 0 -612 -3 -616 -10z"/>
<path d="M1440 300 l0 -250 120 0 120 0 0 250 0 250 -120 0 -120 0 0 -250z"/>
</g>
</svg>
